<?xml version="1.0" encoding="UTF-8"?>
<svg id="_ò__1" data-name="ò‡_1" xmlns="http://www.w3.org/2000/svg" viewBox="0 0 100 100">
  <defs>
    <style>
      .cls-1 {
        fill: none;
        stroke: #000;
        stroke-miterlimit: 10;
        stroke-width: 2px;
      }
    </style>
  </defs>
  <path class="cls-1" d="M74.99,72.22c1.33-2,2.17-3.99,2.38-5.95.12-1.09-.47-2.14-1.47-2.61l-12.18-5.69c-.86-.4-1.89-.15-2.46.61-.5.67-1.03,1.33-1.56,1.98-2.04,2.46-5.58,3.06-8.31,1.41-2.2-1.33-4.51-3.08-7.4-5.96-2.88-2.88-4.63-5.19-5.96-7.4-1.65-2.73-1.05-6.27,1.41-8.31.64-.54,1.3-1.06,1.98-1.56.76-.57,1.02-1.6.61-2.46l-5.69-12.18c-.47-1-1.51-1.59-2.61-1.47-1.96.21-3.95,1.05-5.95,2.38-10.34,8.02-4,25.63,8.79,38.42,12.79,12.78,30.4,19.13,38.42,8.79Z"/>
</svg>