<?xml version="1.0" encoding="UTF-8"?>
<svg id="Layer_1" data-name="Layer 1" xmlns="http://www.w3.org/2000/svg" viewBox="0 0 30.85 37.93">
  <defs>
    <style>
      .cls-1 {
        fill: none;
      }

      .cls-2 {
        fill: #940101;
      }
    </style>
  </defs>
  <g>
    <rect class="cls-1" x="-1.16" y="-12.88" width="34.19" height="48.01"/>
    <path class="cls-2" d="M15.42,2.55c2.58,0,4.9.57,6.96,1.69,2.06,1.13,3.7,2.9,4.93,5.33,1.23,2.42,1.85,5.57,1.85,9.44s-.62,7.01-1.85,9.41c-1.23,2.4-2.88,4.17-4.93,5.29-2.06,1.13-4.38,1.7-6.96,1.7s-4.85-.57-6.93-1.7c-2.08-1.13-3.73-2.89-4.96-5.29-1.23-2.4-1.85-5.54-1.85-9.41s.61-7.02,1.85-9.44c1.23-2.42,2.88-4.2,4.96-5.33,2.08-1.13,4.39-1.69,6.93-1.69ZM15.42,3.76c-2.3,0-4.19,1.19-5.66,3.57-1.47,2.38-2.21,6.27-2.21,11.68s.74,9.29,2.21,11.65c1.47,2.36,3.36,3.54,5.66,3.54s4.19-1.18,5.66-3.54c1.47-2.36,2.21-6.24,2.21-11.65s-.74-9.3-2.21-11.68c-1.47-2.38-3.36-3.57-5.66-3.57Z"/>
  </g>
  <path class="cls-2" d="M9.16,19.26c1.26-1.64,2.74-3.52,4.78-4.02.56-.14,1.14-.17,1.72-.19.4-.01,1.13-.09,1.38.03-.1-.05.11.09.15.13.17.19-.12-.21.13.17.14.22.26.46.37.7.32.65.63,1.31.94,1.97.35.74,1.41.93,2.07.54.75-.44.9-1.33.54-2.07-.66-1.38-1.23-3.17-2.61-4.01-.77-.47-1.67-.51-2.55-.5s-1.7.06-2.53.22c-3.12.56-5.19,3.13-7,5.5-.5.65-.1,1.69.54,2.07.78.46,1.57.11,2.07-.54h0Z"/>
  <path class="cls-2" d="M12.86,29.43c9.73,0,9.75-15.13,0-15.13s-9.75,15.13,0,15.13h0Z"/>
  <path class="cls-2" d="M20.8,18.29c-.01-.48,0-.93.07-1.41l-.27,2.01c.08-.47.2-.91.32-1.37.33-1.3-.56,1.07-.15.25s.8-1.57,1.23-2.35c1.94-3.45.94-8.42-2.71-10.35-3.57-1.89-8.28-.97-10.35,2.71-1.82,3.25-3.35,6.7-3.27,10.5s3.41,7.75,7.56,7.56,7.66-3.33,7.56-7.56h0Z"/>
  <path class="cls-2" d="M15.53,18.66c9.73,0,9.75-15.13,0-15.13s-9.75,15.13,0,15.13h0Z"/>
  <path class="cls-2" d="M17.47,23.89c9.73,0,9.75-15.13,0-15.13s-9.75,15.13,0,15.13h0Z"/>
  <path class="cls-2" d="M16.96,30.35c9.73,0,9.75-15.13,0-15.13s-9.75,15.13,0,15.13h0Z"/>
  <path class="cls-2" d="M15.42,34.15c9.73,0,9.75-15.13,0-15.13s-9.75,15.13,0,15.13h0Z"/>
  <path class="cls-2" d="M15.11,34.46c9.73,0,9.75-15.13,0-15.13s-9.75,15.13,0,15.13h0Z"/>
</svg>