<?xml version="1.0" encoding="UTF-8"?>
<svg id="Layer_1" data-name="Layer 1" xmlns="http://www.w3.org/2000/svg" viewBox="0 0 126.04 73.21">
  <defs>
    <style>
      .cls-1 {
        font-size: 60.51px;
      }

      .cls-1, .cls-2 {
        font-family: PlayfairDisplay-Regular, 'Playfair Display';
        font-variation-settings: 'wght' 400;
      }

      .cls-1, .cls-3 {
        fill: #940101;
      }

      .cls-2 {
        font-size: 60px;
      }

      .cls-4 {
        letter-spacing: -.02em;
      }

      .cls-5 {
        letter-spacing: -.03em;
      }

      .cls-6 {
        letter-spacing: 0em;
      }
    </style>
  </defs>
  <text class="cls-2" transform="translate(.96 59.85)"><tspan class="cls-4" x="0" y="0">H</tspan><tspan class="cls-6" x="44.34" y="0">o</tspan><tspan x="76.62" y="0">l</tspan><tspan class="cls-5" x="93.78" y="0">y</tspan></text>
  <g>
    <text class="cls-1" transform="translate(45.03 59.96)"><tspan x="0" y="0">o</tspan></text>
    <path class="cls-3" d="M55.35,44.65c1.26-1.64,2.74-3.52,4.78-4.02.56-.14,1.14-.17,1.72-.19.4-.01,1.13-.09,1.38.03-.1-.05.11.09.15.13.17.19-.12-.21.13.17.14.22.26.46.37.7.32.65.63,1.31.94,1.97.35.74,1.41.93,2.07.54.75-.44.9-1.33.54-2.07-.66-1.38-1.23-3.17-2.61-4.01-.77-.47-1.67-.51-2.55-.5s-1.7.06-2.53.22c-3.12.56-5.19,3.13-7,5.5-.5.65-.1,1.69.54,2.07.78.46,1.57.11,2.07-.54h0Z"/>
    <path class="cls-3" d="M59.05,54.82c9.73,0,9.75-15.13,0-15.13s-9.75,15.13,0,15.13h0Z"/>
    <path class="cls-3" d="M66.99,43.68c-.01-.48,0-.93.07-1.41l-.27,2.01c.08-.47.2-.91.32-1.37.33-1.3-.56,1.07-.15.25s.8-1.57,1.23-2.35c1.94-3.45.94-8.42-2.71-10.35s-8.28-.97-10.35,2.71c-1.82,3.25-3.35,6.7-3.27,10.5s3.41,7.75,7.56,7.56,7.66-3.33,7.56-7.56h0Z"/>
    <path class="cls-3" d="M61.72,44.05c9.73,0,9.75-15.13,0-15.13s-9.75,15.13,0,15.13h0Z"/>
    <path class="cls-3" d="M63.67,49.28c9.73,0,9.75-15.13,0-15.13s-9.75,15.13,0,15.13h0Z"/>
    <path class="cls-3" d="M63.15,55.74c9.73,0,9.75-15.13,0-15.13s-9.75,15.13,0,15.13h0Z"/>
    <path class="cls-3" d="M61.61,59.54c9.73,0,9.75-15.13,0-15.13s-9.75,15.13,0,15.13h0Z"/>
    <path class="cls-3" d="M61.31,59.85c9.73,0,9.75-15.13,0-15.13s-9.75,15.13,0,15.13h0Z"/>
  </g>
</svg>