<?xml version="1.0" encoding="UTF-8"?>
<svg id="Layer_1" data-name="Layer 1" xmlns="http://www.w3.org/2000/svg" viewBox="0 0 1280 353.05">
  <defs>
    <style>
      .cls-1, .cls-2 {
        fill: #f8f8f8;
      }

      .cls-1, .cls-3 {
        stroke: #000;
        stroke-miterlimit: 10;
        stroke-width: 2px;
      }

      .cls-4, .cls-3 {
        fill: none;
      }
    </style>
  </defs>
  <g>
    <circle class="cls-1" cx="159.55" cy="148.25" r="66.92"/>
    <circle class="cls-1" cx="172.15" cy="148.25" r="66.92"/>
    <circle class="cls-1" cx="166.48" cy="148.25" r="66.92"/>
  </g>
  <g>
    <g>
      <path class="cls-2" d="M413.11,148.25c0,12.19-4.6,23.26-10.3,33.1-5.88,10.16-13.36,19.61-23.52,25.48s-21.63,7.61-33.82,7.61-23.98-1.92-33.82-7.61c-10.16-5.88-17.64-15.33-23.52-25.48s-10.3-20.91-10.3-33.1,4.6-23.26,10.3-33.1,13.36-19.61,23.52-25.48,21.63-7.61,33.82-7.61,23.98,1.92,33.82,7.61c10.16,5.88,17.64,15.33,23.52,25.48,5.7,9.84,10.3,20.91,10.3,33.1Z"/>
      <path class="cls-3" d="M413.11,148.25c0,12.19-4.6,23.26-10.3,33.1-5.88,10.16-13.36,19.61-23.52,25.48s-21.63,7.61-33.82,7.61-23.98-1.92-33.82-7.61c-10.16-5.88-17.64-15.33-23.52-25.48s-10.3-20.91-10.3-33.1,4.6-23.26,10.3-33.1,13.36-19.61,23.52-25.48,21.63-7.61,33.82-7.61,23.98,1.92,33.82,7.61c10.16,5.88,17.64,15.33,23.52,25.48,5.7,9.84,10.3,20.91,10.3,33.1Z"/>
    </g>
    <g>
      <path class="cls-2" d="M425.71,148.25c0,12.19-4.6,23.26-10.3,33.1-5.88,10.16-13.36,19.61-23.52,25.48s-21.63,7.61-33.82,7.61-23.98-1.92-33.82-7.61c-10.16-5.88-17.64-15.33-23.52-25.48s-10.3-20.91-10.3-33.1,4.6-23.26,10.3-33.1,13.36-19.61,23.52-25.48,21.63-7.61,33.82-7.61,23.98,1.92,33.82,7.61c10.16,5.88,17.64,15.33,23.52,25.48,5.7,9.84,10.3,20.91,10.3,33.1Z"/>
      <path class="cls-3" d="M425.71,148.25c0,12.19-4.6,23.26-10.3,33.1-5.88,10.16-13.36,19.61-23.52,25.48s-21.63,7.61-33.82,7.61-23.98-1.92-33.82-7.61c-10.16-5.88-17.64-15.33-23.52-25.48s-10.3-20.91-10.3-33.1,4.6-23.26,10.3-33.1,13.36-19.61,23.52-25.48,21.63-7.61,33.82-7.61,23.98,1.92,33.82,7.61c10.16,5.88,17.64,15.33,23.52,25.48,5.7,9.84,10.3,20.91,10.3,33.1Z"/>
    </g>
    <g>
      <path class="cls-2" d="M419.51,148.25c0,12.19-4.6,23.26-10.3,33.1-5.88,10.16-13.36,19.61-23.52,25.48s-21.63,7.61-33.82,7.61-23.98-1.92-33.82-7.61c-10.16-5.88-17.64-15.33-23.52-25.48s-10.3-20.91-10.3-33.1,4.6-23.26,10.3-33.1,13.36-19.61,23.52-25.48,21.63-7.61,33.82-7.61,23.98,1.92,33.82,7.61c10.16,5.88,17.64,15.33,23.52,25.48,5.7,9.84,10.3,20.91,10.3,33.1Z"/>
      <path class="cls-3" d="M419.51,148.25c0,12.19-4.6,23.26-10.3,33.1-5.88,10.16-13.36,19.61-23.52,25.48s-21.63,7.61-33.82,7.61-23.98-1.92-33.82-7.61c-10.16-5.88-17.64-15.33-23.52-25.48s-10.3-20.91-10.3-33.1,4.6-23.26,10.3-33.1,13.36-19.61,23.52-25.48,21.63-7.61,33.82-7.61,23.98,1.92,33.82,7.61c10.16,5.88,17.64,15.33,23.52,25.48,5.7,9.84,10.3,20.91,10.3,33.1Z"/>
    </g>
  </g>
  <g>
    <g>
      <path class="cls-2" d="M599.03,148.25c0,3.23-1.66,6.31-2.11,9.42s.27,6.61-.62,9.64-3.37,5.57-4.68,8.44-1.6,6.4-3.32,9.07-4.79,4.38-6.88,6.78-3.33,5.68-5.74,7.77-5.82,2.85-8.5,4.58-4.78,4.51-7.69,5.84-6.37,1.09-9.45,1.99-5.84,2.97-9.03,3.42-6.39-.76-9.63-.76-6.52,1.2-9.63.76-6-2.54-9.03-3.43-6.57-.68-9.45-1.99-5.02-4.13-7.69-5.84-6.1-2.49-8.5-4.58-3.65-5.36-5.74-7.77-5.15-4.09-6.88-6.78-1.99-6.16-3.32-9.07-3.78-5.36-4.68-8.44-.16-6.45-.62-9.64-2.11-6.19-2.11-9.42,1.66-6.31,2.11-9.42-.27-6.61.62-9.64,3.37-5.57,4.68-8.44,1.6-6.4,3.32-9.07,4.79-4.38,6.88-6.78,3.33-5.68,5.74-7.77,5.82-2.85,8.5-4.58,4.78-4.51,7.69-5.84,6.37-1.09,9.45-1.99,5.84-2.97,9.03-3.42,6.39.76,9.63.76,6.52-1.2,9.63-.76,6,2.54,9.03,3.43,6.57.68,9.45,1.99,5.02,4.13,7.69,5.84,6.1,2.49,8.5,4.58,3.65,5.36,5.74,7.77,5.15,4.09,6.88,6.78,1.99,6.16,3.32,9.07,3.78,5.36,4.68,8.44.16,6.45.62,9.64,2.11,6.19,2.11,9.42Z"/>
      <path class="cls-3" d="M599.03,148.25c0,3.23-1.66,6.31-2.11,9.42s.27,6.61-.62,9.64-3.37,5.57-4.68,8.44-1.6,6.4-3.32,9.07-4.79,4.38-6.88,6.78-3.33,5.68-5.74,7.77-5.82,2.85-8.5,4.58-4.78,4.51-7.69,5.84-6.37,1.09-9.45,1.99-5.84,2.97-9.03,3.42-6.39-.76-9.63-.76-6.52,1.2-9.63.76-6-2.54-9.03-3.43-6.57-.68-9.45-1.99-5.02-4.13-7.69-5.84-6.1-2.49-8.5-4.58-3.65-5.36-5.74-7.77-5.15-4.09-6.88-6.78-1.99-6.16-3.32-9.07-3.78-5.36-4.68-8.44-.16-6.45-.62-9.64-2.11-6.19-2.11-9.42,1.66-6.31,2.11-9.42-.27-6.61.62-9.64,3.37-5.57,4.68-8.44,1.6-6.4,3.32-9.07,4.79-4.38,6.88-6.78,3.33-5.68,5.74-7.77,5.82-2.85,8.5-4.58,4.78-4.51,7.69-5.84,6.37-1.09,9.45-1.99,5.84-2.97,9.03-3.42,6.39.76,9.63.76,6.52-1.2,9.63-.76,6,2.54,9.03,3.43,6.57.68,9.45,1.99,5.02,4.13,7.69,5.84,6.1,2.49,8.5,4.58,3.65,5.36,5.74,7.77,5.15,4.09,6.88,6.78,1.99,6.16,3.32,9.07,3.78,5.36,4.68,8.44.16,6.45.62,9.64,2.11,6.19,2.11,9.42Z"/>
    </g>
    <g>
      <path class="cls-2" d="M612.52,148.25c0,3.23-1.66,6.31-2.11,9.42s.27,6.61-.62,9.64-3.37,5.57-4.68,8.44-1.6,6.4-3.32,9.07-4.79,4.38-6.88,6.78-3.33,5.68-5.74,7.77-5.82,2.85-8.5,4.58-4.78,4.51-7.69,5.84-6.37,1.09-9.45,1.99-5.84,2.97-9.03,3.42-6.39-.76-9.63-.76-6.52,1.2-9.63.76-6-2.54-9.03-3.43-6.57-.68-9.45-1.99-5.02-4.13-7.69-5.84-6.1-2.49-8.5-4.58-3.65-5.36-5.74-7.77-5.15-4.09-6.88-6.78-1.99-6.16-3.32-9.07-3.78-5.36-4.68-8.44-.16-6.45-.62-9.64-2.11-6.19-2.11-9.42,1.66-6.31,2.11-9.42-.27-6.61.62-9.64,3.37-5.57,4.68-8.44,1.6-6.4,3.32-9.07,4.79-4.38,6.88-6.78,3.33-5.68,5.74-7.77,5.82-2.85,8.5-4.58,4.78-4.51,7.69-5.84,6.37-1.09,9.45-1.99,5.84-2.97,9.03-3.42,6.39.76,9.63.76,6.52-1.2,9.63-.76,6,2.54,9.03,3.43,6.57.68,9.45,1.99,5.02,4.13,7.69,5.84,6.1,2.49,8.5,4.58,3.65,5.36,5.74,7.77,5.15,4.09,6.88,6.78,1.99,6.16,3.32,9.07,3.78,5.36,4.68,8.44.16,6.45.62,9.64,2.11,6.19,2.11,9.42Z"/>
      <path class="cls-3" d="M612.52,148.25c0,3.23-1.66,6.31-2.11,9.42s.27,6.61-.62,9.64-3.37,5.57-4.68,8.44-1.6,6.4-3.32,9.07-4.79,4.38-6.88,6.78-3.33,5.68-5.74,7.77-5.82,2.85-8.5,4.58-4.78,4.51-7.69,5.84-6.37,1.09-9.45,1.99-5.84,2.97-9.03,3.42-6.39-.76-9.63-.76-6.52,1.2-9.63.76-6-2.54-9.03-3.43-6.57-.68-9.45-1.99-5.02-4.13-7.69-5.84-6.1-2.49-8.5-4.58-3.65-5.36-5.74-7.77-5.15-4.09-6.88-6.78-1.99-6.16-3.32-9.07-3.78-5.36-4.68-8.44-.16-6.45-.62-9.64-2.11-6.19-2.11-9.42,1.66-6.31,2.11-9.42-.27-6.61.62-9.64,3.37-5.57,4.68-8.44,1.6-6.4,3.32-9.07,4.79-4.38,6.88-6.78,3.33-5.68,5.74-7.77,5.82-2.85,8.5-4.58,4.78-4.51,7.69-5.84,6.37-1.09,9.45-1.99,5.84-2.97,9.03-3.42,6.39.76,9.63.76,6.52-1.2,9.63-.76,6,2.54,9.03,3.43,6.57.68,9.45,1.99,5.02,4.13,7.69,5.84,6.1,2.49,8.5,4.58,3.65,5.36,5.74,7.77,5.15,4.09,6.88,6.78,1.99,6.16,3.32,9.07,3.78,5.36,4.68,8.44.16,6.45.62,9.64,2.11,6.19,2.11,9.42Z"/>
    </g>
    <g>
      <path class="cls-2" d="M605.88,148.25c0,3.23-1.66,6.31-2.11,9.42s.27,6.61-.62,9.64-3.37,5.57-4.68,8.44-1.6,6.4-3.32,9.07-4.79,4.38-6.88,6.78-3.33,5.68-5.74,7.77-5.82,2.85-8.5,4.58-4.78,4.51-7.69,5.84-6.37,1.09-9.45,1.99-5.84,2.97-9.03,3.42-6.39-.76-9.63-.76-6.52,1.2-9.63.76-6-2.54-9.03-3.43-6.57-.68-9.45-1.99-5.02-4.13-7.69-5.84-6.1-2.49-8.5-4.58-3.65-5.36-5.74-7.77-5.15-4.09-6.88-6.78-1.99-6.16-3.32-9.07-3.78-5.36-4.68-8.44-.16-6.45-.62-9.64-2.11-6.19-2.11-9.42,1.66-6.31,2.11-9.42-.27-6.61.62-9.64,3.37-5.57,4.68-8.44,1.6-6.4,3.32-9.07,4.79-4.38,6.88-6.78,3.33-5.68,5.74-7.77,5.82-2.85,8.5-4.58,4.78-4.51,7.69-5.84,6.37-1.09,9.45-1.99,5.84-2.97,9.03-3.42,6.39.76,9.63.76,6.52-1.2,9.63-.76,6,2.54,9.03,3.43,6.57.68,9.45,1.99,5.02,4.13,7.69,5.84,6.1,2.49,8.5,4.58,3.65,5.36,5.74,7.77,5.15,4.09,6.88,6.78,1.99,6.16,3.32,9.07,3.78,5.36,4.68,8.44.16,6.45.62,9.64,2.11,6.19,2.11,9.42Z"/>
      <path class="cls-3" d="M605.88,148.25c0,3.23-1.66,6.31-2.11,9.42s.27,6.61-.62,9.64-3.37,5.57-4.68,8.44-1.6,6.4-3.32,9.07-4.79,4.38-6.88,6.78-3.33,5.68-5.74,7.77-5.82,2.85-8.5,4.58-4.78,4.51-7.69,5.84-6.37,1.09-9.45,1.99-5.84,2.97-9.03,3.42-6.39-.76-9.63-.76-6.52,1.2-9.63.76-6-2.54-9.03-3.43-6.57-.68-9.45-1.99-5.02-4.13-7.69-5.84-6.1-2.49-8.5-4.58-3.65-5.36-5.74-7.77-5.15-4.09-6.88-6.78-1.99-6.16-3.32-9.07-3.78-5.36-4.68-8.44-.16-6.45-.62-9.64-2.11-6.19-2.11-9.42,1.66-6.31,2.11-9.42-.27-6.61.62-9.64,3.37-5.57,4.68-8.44,1.6-6.4,3.32-9.07,4.79-4.38,6.88-6.78,3.33-5.68,5.74-7.77,5.82-2.85,8.5-4.58,4.78-4.51,7.69-5.84,6.37-1.09,9.45-1.99,5.84-2.97,9.03-3.42,6.39.76,9.63.76,6.52-1.2,9.63-.76,6,2.54,9.03,3.43,6.57.68,9.45,1.99,5.02,4.13,7.69,5.84,6.1,2.49,8.5,4.58,3.65,5.36,5.74,7.77,5.15,4.09,6.88,6.78,1.99,6.16,3.32,9.07,3.78,5.36,4.68,8.44.16,6.45.62,9.64,2.11,6.19,2.11,9.42Z"/>
    </g>
  </g>
  <g>
    <g>
      <path class="cls-2" d="M786.56,148.25c0,3.96-3.2,7.6-3.86,11.37s1.08,8.39-.24,12.01-5.6,6.01-7.54,9.36-1.85,8.22-4.35,11.2-7.3,3.71-10.28,6.22-4.52,7.09-7.9,9.05-8.1,1-11.78,2.34-6.65,5.1-10.53,5.78-7.91-1.85-11.87-1.85-8.1,2.51-11.87,1.85-6.91-4.47-10.53-5.78-8.43-.4-11.78-2.34-4.93-6.55-7.9-9.05-7.77-3.24-10.28-6.22-2.39-7.82-4.35-11.2c-1.94-3.35-6.19-5.67-7.54-9.36s.44-8.13-.24-12.01-3.86-7.41-3.86-11.37,3.2-7.6,3.86-11.37-1.08-8.39.24-12.01,5.6-6.01,7.54-9.36,1.85-8.22,4.35-11.2,7.3-3.71,10.28-6.22,4.52-7.09,7.9-9.05,8.1-1,11.78-2.34,6.65-5.1,10.53-5.78,7.91,1.85,11.87,1.85,8.1-2.51,11.87-1.85,6.91,4.47,10.53,5.78,8.43.4,11.78,2.34,4.93,6.55,7.9,9.05,7.77,3.24,10.28,6.22,2.39,7.82,4.35,11.2,6.19,5.67,7.54,9.36-.44,8.13.24,12.01,3.86,7.41,3.86,11.37Z"/>
      <path class="cls-3" d="M786.56,148.25c0,3.96-3.2,7.6-3.86,11.37s1.08,8.39-.24,12.01-5.6,6.01-7.54,9.36-1.85,8.22-4.35,11.2-7.3,3.71-10.28,6.22-4.52,7.09-7.9,9.05-8.1,1-11.78,2.34-6.65,5.1-10.53,5.78-7.91-1.85-11.87-1.85-8.1,2.51-11.87,1.85-6.91-4.47-10.53-5.78-8.43-.4-11.78-2.34-4.93-6.55-7.9-9.05-7.77-3.24-10.28-6.22-2.39-7.82-4.35-11.2c-1.94-3.35-6.19-5.67-7.54-9.36s.44-8.13-.24-12.01-3.86-7.41-3.86-11.37,3.2-7.6,3.86-11.37-1.08-8.39.24-12.01,5.6-6.01,7.54-9.36,1.85-8.22,4.35-11.2,7.3-3.71,10.28-6.22,4.52-7.09,7.9-9.05,8.1-1,11.78-2.34,6.65-5.1,10.53-5.78,7.91,1.85,11.87,1.85,8.1-2.51,11.87-1.85,6.91,4.47,10.53,5.78,8.43.4,11.78,2.34,4.93,6.55,7.9,9.05,7.77,3.24,10.28,6.22,2.39,7.82,4.35,11.2,6.19,5.67,7.54,9.36-.44,8.13.24,12.01,3.86,7.41,3.86,11.37Z"/>
    </g>
    <g>
      <path class="cls-2" d="M799.09,148.25c0,3.96-3.2,7.6-3.86,11.37s1.08,8.39-.24,12.01-5.6,6.01-7.54,9.36-1.85,8.22-4.35,11.2-7.3,3.71-10.28,6.22-4.52,7.09-7.9,9.05-8.1,1-11.78,2.34-6.65,5.1-10.53,5.78-7.91-1.85-11.87-1.85-8.1,2.51-11.87,1.85-6.91-4.47-10.53-5.78-8.43-.4-11.78-2.34-4.93-6.55-7.9-9.05-7.77-3.24-10.28-6.22-2.39-7.82-4.35-11.2-6.19-5.67-7.54-9.36.44-8.13-.24-12.01-3.86-7.41-3.86-11.37,3.2-7.6,3.86-11.37-1.08-8.39.24-12.01,5.6-6.01,7.54-9.36,1.85-8.22,4.35-11.2,7.3-3.71,10.28-6.22,4.52-7.09,7.9-9.05,8.1-1,11.78-2.34,6.65-5.1,10.53-5.78,7.91,1.85,11.87,1.85,8.1-2.51,11.87-1.85,6.91,4.47,10.53,5.78,8.43.4,11.78,2.34,4.93,6.55,7.9,9.05c2.98,2.51,7.77,3.24,10.28,6.22s2.39,7.82,4.35,11.2,6.19,5.67,7.54,9.36-.44,8.13.24,12.01,3.86,7.41,3.86,11.37Z"/>
      <path class="cls-3" d="M799.09,148.25c0,3.96-3.2,7.6-3.86,11.37s1.08,8.39-.24,12.01-5.6,6.01-7.54,9.36-1.85,8.22-4.35,11.2-7.3,3.71-10.28,6.22-4.52,7.09-7.9,9.05-8.1,1-11.78,2.34-6.65,5.1-10.53,5.78-7.91-1.85-11.87-1.85-8.1,2.51-11.87,1.85-6.91-4.47-10.53-5.78-8.43-.4-11.78-2.34-4.93-6.55-7.9-9.05-7.77-3.24-10.28-6.22-2.39-7.82-4.35-11.2-6.19-5.67-7.54-9.36.44-8.13-.24-12.01-3.86-7.41-3.86-11.37,3.2-7.6,3.86-11.37-1.08-8.39.24-12.01,5.6-6.01,7.54-9.36,1.85-8.22,4.35-11.2,7.3-3.71,10.28-6.22,4.52-7.09,7.9-9.05,8.1-1,11.78-2.34,6.65-5.1,10.53-5.78,7.91,1.85,11.87,1.85,8.1-2.51,11.87-1.85,6.91,4.47,10.53,5.78,8.43.4,11.78,2.34,4.93,6.55,7.9,9.05c2.98,2.51,7.77,3.24,10.28,6.22s2.39,7.82,4.35,11.2,6.19,5.67,7.54,9.36-.44,8.13.24,12.01,3.86,7.41,3.86,11.37Z"/>
    </g>
    <g>
      <path class="cls-2" d="M792.53,148.25c0,3.96-3.2,7.6-3.86,11.37s1.08,8.39-.24,12.01-5.6,6.01-7.54,9.36-1.85,8.22-4.35,11.2-7.3,3.71-10.28,6.22-4.52,7.09-7.9,9.05-8.1,1-11.78,2.34-6.65,5.1-10.53,5.78-7.91-1.85-11.87-1.85-8.1,2.51-11.87,1.85-6.91-4.47-10.53-5.78-8.43-.4-11.78-2.34-4.93-6.55-7.9-9.05-7.77-3.24-10.28-6.22-2.39-7.82-4.35-11.2c-1.94-3.35-6.19-5.67-7.54-9.36s.44-8.13-.24-12.01-3.86-7.41-3.86-11.37,3.2-7.6,3.86-11.37-1.08-8.39.24-12.01,5.6-6.01,7.54-9.36,1.85-8.22,4.35-11.2,7.3-3.71,10.28-6.22,4.52-7.09,7.9-9.05,8.1-1,11.78-2.34,6.65-5.1,10.53-5.78,7.91,1.85,11.87,1.85,8.1-2.51,11.87-1.85,6.91,4.47,10.53,5.78,8.43.4,11.78,2.34,4.93,6.55,7.9,9.05,7.77,3.24,10.28,6.22,2.39,7.82,4.35,11.2,6.19,5.67,7.54,9.36-.44,8.13.24,12.01,3.86,7.41,3.86,11.37Z"/>
      <path class="cls-3" d="M792.53,148.25c0,3.96-3.2,7.6-3.86,11.37s1.08,8.39-.24,12.01-5.6,6.01-7.54,9.36-1.85,8.22-4.35,11.2-7.3,3.71-10.28,6.22-4.52,7.09-7.9,9.05-8.1,1-11.78,2.34-6.65,5.1-10.53,5.78-7.91-1.85-11.87-1.85-8.1,2.51-11.87,1.85-6.91-4.47-10.53-5.78-8.43-.4-11.78-2.34-4.93-6.55-7.9-9.05-7.77-3.24-10.28-6.22-2.39-7.82-4.35-11.2c-1.94-3.35-6.19-5.67-7.54-9.36s.44-8.13-.24-12.01-3.86-7.41-3.86-11.37,3.2-7.6,3.86-11.37-1.08-8.39.24-12.01,5.6-6.01,7.54-9.36,1.85-8.22,4.35-11.2,7.3-3.71,10.28-6.22,4.52-7.09,7.9-9.05,8.1-1,11.78-2.34,6.65-5.1,10.53-5.78,7.91,1.85,11.87,1.85,8.1-2.51,11.87-1.85,6.91,4.47,10.53,5.78,8.43.4,11.78,2.34,4.93,6.55,7.9,9.05,7.77,3.24,10.28,6.22,2.39,7.82,4.35,11.2,6.19,5.67,7.54,9.36-.44,8.13.24,12.01,3.86,7.41,3.86,11.37Z"/>
    </g>
  </g>
  <g>
    <g>
      <path class="cls-2" d="M992.58,148.25c0,9.07-5.96,16.9-9.23,24.79s-4.84,17.89-11,24.06-15.88,7.61-24.06,11c-7.89,3.27-15.71,9.23-24.79,9.23s-16.9-5.96-24.79-9.23-17.89-4.84-24.06-11-7.61-15.88-11-24.06c-3.27-7.89-9.23-15.71-9.23-24.79s5.96-16.9,9.23-24.79c3.39-8.18,4.84-17.89,11-24.06s15.88-7.61,24.06-11c7.89-3.27,15.71-9.23,24.79-9.23s16.9,5.96,24.79,9.23c8.18,3.39,17.89,4.84,24.06,11s7.61,15.88,11,24.06,9.23,15.71,9.23,24.79Z"/>
      <path class="cls-3" d="M992.58,148.25c0,9.07-5.96,16.9-9.23,24.79s-4.84,17.89-11,24.06-15.88,7.61-24.06,11c-7.89,3.27-15.71,9.23-24.79,9.23s-16.9-5.96-24.79-9.23-17.89-4.84-24.06-11-7.61-15.88-11-24.06c-3.27-7.89-9.23-15.71-9.23-24.79s5.96-16.9,9.23-24.79c3.39-8.18,4.84-17.89,11-24.06s15.88-7.61,24.06-11c7.89-3.27,15.71-9.23,24.79-9.23s16.9,5.96,24.79,9.23c8.18,3.39,17.89,4.84,24.06,11s7.61,15.88,11,24.06,9.23,15.71,9.23,24.79Z"/>
    </g>
    <g>
      <path class="cls-2" d="M973.13,148.25c0,9.07-5.96,16.9-9.23,24.79s-4.84,17.89-11,24.06-15.88,7.61-24.06,11-15.71,9.23-24.79,9.23-16.9-5.96-24.79-9.23c-8.18-3.39-17.89-4.84-24.06-11s-7.61-15.88-11-24.06-9.23-15.71-9.23-24.79,5.96-16.9,9.23-24.79c3.39-8.18,4.84-17.89,11-24.06s15.88-7.61,24.06-11,15.71-9.23,24.79-9.23,16.9,5.96,24.79,9.23,17.89,4.84,24.06,11,7.61,15.88,11,24.06c3.27,7.89,9.23,15.71,9.23,24.79Z"/>
      <path class="cls-3" d="M973.13,148.25c0,9.07-5.96,16.9-9.23,24.79s-4.84,17.89-11,24.06-15.88,7.61-24.06,11-15.71,9.23-24.79,9.23-16.9-5.96-24.79-9.23c-8.18-3.39-17.89-4.84-24.06-11s-7.61-15.88-11-24.06-9.23-15.71-9.23-24.79,5.96-16.9,9.23-24.79c3.39-8.18,4.84-17.89,11-24.06s15.88-7.61,24.06-11,15.71-9.23,24.79-9.23,16.9,5.96,24.79,9.23,17.89,4.84,24.06,11,7.61,15.88,11,24.06c3.27,7.89,9.23,15.71,9.23,24.79Z"/>
    </g>
    <g>
      <path class="cls-2" d="M983.45,148.25c0,9.07-5.96,16.9-9.23,24.79s-4.84,17.89-11,24.06-15.88,7.61-24.06,11c-7.89,3.27-15.71,9.23-24.79,9.23s-16.9-5.96-24.79-9.23-17.89-4.84-24.06-11-7.61-15.88-11-24.06c-3.27-7.89-9.23-15.71-9.23-24.79s5.96-16.9,9.23-24.79,4.84-17.89,11-24.06,15.88-7.61,24.06-11c7.89-3.27,15.71-9.23,24.79-9.23s16.9,5.96,24.79,9.23c8.18,3.39,17.89,4.84,24.06,11s7.61,15.88,11,24.06,9.23,15.71,9.23,24.79Z"/>
      <path class="cls-3" d="M983.45,148.25c0,9.07-5.96,16.9-9.23,24.79s-4.84,17.89-11,24.06-15.88,7.61-24.06,11c-7.89,3.27-15.71,9.23-24.79,9.23s-16.9-5.96-24.79-9.23-17.89-4.84-24.06-11-7.61-15.88-11-24.06c-3.27-7.89-9.23-15.71-9.23-24.79s5.96-16.9,9.23-24.79,4.84-17.89,11-24.06,15.88-7.61,24.06-11c7.89-3.27,15.71-9.23,24.79-9.23s16.9,5.96,24.79,9.23c8.18,3.39,17.89,4.84,24.06,11s7.61,15.88,11,24.06,9.23,15.71,9.23,24.79Z"/>
    </g>
  </g>
  <g>
    <g>
      <path class="cls-2" d="M1165.9,148.25c0,5.12-4.84,9.63-5.93,14.42-1.12,4.95,1.26,11.1-.9,15.56s-8.51,6.5-11.62,10.4-3.65,10.51-7.56,13.63-10.43,2.16-14.97,4.35-7.78,7.88-12.73,9-10.25-2.6-15.37-2.6-10.58,3.69-15.37,2.6-8.27-6.85-12.73-9-11.07-1.24-14.97-4.35-4.44-9.72-7.56-13.63-9.43-5.86-11.62-10.4.23-10.62-.9-15.56-5.93-9.3-5.93-14.42,4.84-9.63,5.93-14.42-1.26-11.1.9-15.56,8.51-6.5,11.62-10.4,3.65-10.51,7.56-13.63,10.43-2.16,14.97-4.35,7.78-7.88,12.73-9,10.25,2.6,15.37,2.6,10.58-3.69,15.37-2.6,8.27,6.85,12.73,9,11.07,1.24,14.97,4.35,4.44,9.72,7.56,13.63,9.43,5.86,11.62,10.4-.23,10.62.9,15.56,5.93,9.3,5.93,14.42Z"/>
      <path class="cls-3" d="M1165.9,148.25c0,5.12-4.84,9.63-5.93,14.42-1.12,4.95,1.26,11.1-.9,15.56s-8.51,6.5-11.62,10.4-3.65,10.51-7.56,13.63-10.43,2.16-14.97,4.35-7.78,7.88-12.73,9-10.25-2.6-15.37-2.6-10.58,3.69-15.37,2.6-8.27-6.85-12.73-9-11.07-1.24-14.97-4.35-4.44-9.72-7.56-13.63-9.43-5.86-11.62-10.4.23-10.62-.9-15.56-5.93-9.3-5.93-14.42,4.84-9.63,5.93-14.42-1.26-11.1.9-15.56,8.51-6.5,11.62-10.4,3.65-10.51,7.56-13.63,10.43-2.16,14.97-4.35,7.78-7.88,12.73-9,10.25,2.6,15.37,2.6,10.58-3.69,15.37-2.6,8.27,6.85,12.73,9,11.07,1.24,14.97,4.35,4.44,9.72,7.56,13.63,9.43,5.86,11.62,10.4-.23,10.62.9,15.56,5.93,9.3,5.93,14.42Z"/>
    </g>
    <g>
      <path class="cls-2" d="M1189.53,148.25c0,5.12-4.84,9.63-5.93,14.42s1.26,11.1-.9,15.56-8.51,6.5-11.62,10.4-3.65,10.51-7.56,13.63-10.43,2.16-14.97,4.35-7.78,7.88-12.73,9-10.25-2.6-15.37-2.6-10.58,3.69-15.37,2.6-8.27-6.85-12.73-9-11.07-1.24-14.97-4.35-4.44-9.72-7.56-13.63-9.43-5.86-11.62-10.4.23-10.62-.9-15.56-5.93-9.3-5.93-14.42,4.84-9.63,5.93-14.42c1.12-4.95-1.26-11.1.9-15.56s8.51-6.5,11.62-10.4,3.65-10.51,7.56-13.63,10.43-2.16,14.97-4.35,7.78-7.88,12.73-9,10.25,2.6,15.37,2.6,10.58-3.69,15.37-2.6,8.27,6.85,12.73,9,11.07,1.24,14.97,4.35,4.44,9.72,7.56,13.63c3.11,3.9,9.43,5.86,11.62,10.4s-.23,10.62.9,15.56,5.93,9.3,5.93,14.42Z"/>
      <path class="cls-3" d="M1189.53,148.25c0,5.12-4.84,9.63-5.93,14.42s1.26,11.1-.9,15.56-8.51,6.5-11.62,10.4-3.65,10.51-7.56,13.63-10.43,2.16-14.97,4.35-7.78,7.88-12.73,9-10.25-2.6-15.37-2.6-10.58,3.69-15.37,2.6-8.27-6.85-12.73-9-11.07-1.24-14.97-4.35-4.44-9.72-7.56-13.63-9.43-5.86-11.62-10.4.23-10.62-.9-15.56-5.93-9.3-5.93-14.42,4.84-9.63,5.93-14.42c1.12-4.95-1.26-11.1.9-15.56s8.51-6.5,11.62-10.4,3.65-10.51,7.56-13.63,10.43-2.16,14.97-4.35,7.78-7.88,12.73-9,10.25,2.6,15.37,2.6,10.58-3.69,15.37-2.6,8.27,6.85,12.73,9,11.07,1.24,14.97,4.35,4.44,9.72,7.56,13.63c3.11,3.9,9.43,5.86,11.62,10.4s-.23,10.62.9,15.56,5.93,9.3,5.93,14.42Z"/>
    </g>
    <g>
      <path class="cls-2" d="M1178.11,148.25c0,5.12-4.84,9.63-5.93,14.42s1.26,11.1-.9,15.56-8.51,6.5-11.62,10.4-3.65,10.51-7.56,13.63-10.43,2.16-14.97,4.35-7.78,7.88-12.73,9-10.25-2.6-15.37-2.6-10.58,3.69-15.37,2.6-8.27-6.85-12.73-9-11.07-1.24-14.97-4.35-4.44-9.72-7.56-13.63-9.43-5.86-11.62-10.4.23-10.62-.9-15.56-5.93-9.3-5.93-14.42,4.84-9.63,5.93-14.42c1.12-4.95-1.26-11.1.9-15.56s8.51-6.5,11.62-10.4,3.65-10.51,7.56-13.63,10.43-2.16,14.97-4.35,7.78-7.88,12.73-9,10.25,2.6,15.37,2.6,10.58-3.69,15.37-2.6,8.27,6.85,12.73,9,11.07,1.24,14.97,4.35,4.44,9.72,7.56,13.63,9.43,5.86,11.62,10.4-.23,10.62.9,15.56,5.93,9.3,5.93,14.42Z"/>
      <path class="cls-3" d="M1178.11,148.25c0,5.12-4.84,9.63-5.93,14.42s1.26,11.1-.9,15.56-8.51,6.5-11.62,10.4-3.65,10.51-7.56,13.63-10.43,2.16-14.97,4.35-7.78,7.88-12.73,9-10.25-2.6-15.37-2.6-10.58,3.69-15.37,2.6-8.27-6.85-12.73-9-11.07-1.24-14.97-4.35-4.44-9.72-7.56-13.63-9.43-5.86-11.62-10.4.23-10.62-.9-15.56-5.93-9.3-5.93-14.42,4.84-9.63,5.93-14.42c1.12-4.95-1.26-11.1.9-15.56s8.51-6.5,11.62-10.4,3.65-10.51,7.56-13.63,10.43-2.16,14.97-4.35,7.78-7.88,12.73-9,10.25,2.6,15.37,2.6,10.58-3.69,15.37-2.6,8.27,6.85,12.73,9,11.07,1.24,14.97,4.35,4.44,9.72,7.56,13.63,9.43,5.86,11.62,10.4-.23,10.62.9,15.56,5.93,9.3,5.93,14.42Z"/>
    </g>
  </g>
  <g>
    <rect class="cls-4" x="153.24" y="244.42" width="25.22" height="27.29"/>
    <path d="M158.46,245.44v18.48h-3.72v-18.48h3.72ZM164.96,245.44v3.08h-7.44v-3.08h7.44ZM164.25,253.3v3.07h-6.73v-3.07h6.73Z"/>
    <path d="M170.84,245.44v18.48h-3.72v-18.48h3.72ZM177.38,260.85v3.07h-7.68v-3.07h7.68Z"/>
  </g>
  <g>
    <rect class="cls-4" x="322.54" y="246.67" width="58.47" height="22.8"/>
    <path d="M326.79,247.68l3.49,14.54.57,3.95h-2.72l-5.32-18.48h3.97ZM329.79,262.22l3.5-14.54h4.01l-5.36,18.48h-2.7l.55-3.95Z"/>
    <path d="M341.81,247.68l3.49,14.54.57,3.95h-2.72l-5.32-18.48h3.97ZM344.8,262.22l3.5-14.54h4.01l-5.36,18.48h-2.7l.55-3.95Z"/>
    <path d="M361.89,261.31c0-.33-.03-.63-.09-.9s-.18-.52-.37-.75-.47-.46-.83-.69-.83-.47-1.4-.71c-.69-.29-1.35-.59-1.99-.92s-1.22-.7-1.74-1.14-.92-.94-1.23-1.53-.45-1.28-.45-2.08.14-1.49.43-2.12.69-1.18,1.21-1.63,1.14-.8,1.85-1.05,1.5-.37,2.37-.37c1.19,0,2.21.25,3.08.74s1.54,1.16,2.02,2.02.72,1.84.72,2.95h-3.71c0-.52-.07-.99-.22-1.39s-.38-.72-.7-.95-.74-.34-1.24-.34c-.47,0-.87.1-1.17.29s-.54.45-.69.77-.22.69-.22,1.1c0,.3.07.58.22.82s.35.46.62.65.57.37.93.55.76.35,1.19.52c.84.33,1.58.69,2.22,1.09s1.18.83,1.61,1.32.76,1.03.98,1.64.33,1.3.33,2.08-.13,1.47-.4,2.1-.65,1.17-1.16,1.62-1.12.8-1.83,1.05-1.51.37-2.39.37-1.66-.12-2.42-.36-1.43-.61-2.01-1.1-1.03-1.13-1.36-1.89-.5-1.67-.5-2.72h3.72c0,.56.06,1.03.17,1.43s.28.71.51.94.51.41.84.52.72.17,1.15.17c.49,0,.88-.09,1.17-.28s.5-.44.63-.75.19-.67.19-1.07Z"/>
    <path d="M375.71,247.65v18.52h-3.57v-14.16l-3.53,1.36v-2.97l6.7-2.75h.39Z"/>
  </g>
  <g>
    <rect class="cls-4" x="508.61" y="247.74" width="59.06" height="20.66"/>
    <path d="M512.86,248.76l3.49,14.54.57,3.95h-2.72l-5.32-18.48h3.97ZM515.86,263.29l3.5-14.54h4.01l-5.36,18.48h-2.7l.55-3.95Z"/>
    <path d="M527.88,248.76l3.49,14.54.57,3.95h-2.72l-5.32-18.48h3.97ZM530.88,263.29l3.5-14.54h4.01l-5.36,18.48h-2.7l.55-3.95Z"/>
    <path d="M547.96,262.38c0-.33-.03-.63-.09-.9s-.18-.52-.37-.75-.47-.46-.83-.69-.83-.47-1.4-.71c-.69-.29-1.35-.59-1.99-.92s-1.22-.7-1.74-1.14-.92-.94-1.23-1.53-.45-1.28-.45-2.08.14-1.49.43-2.12.69-1.18,1.21-1.63,1.14-.8,1.85-1.05,1.5-.37,2.37-.37c1.19,0,2.21.25,3.08.74s1.54,1.16,2.02,2.02.72,1.84.72,2.95h-3.71c0-.52-.07-.99-.22-1.39s-.38-.72-.7-.95-.74-.34-1.24-.34c-.47,0-.87.1-1.17.29s-.54.45-.69.77-.22.69-.22,1.1c0,.3.07.58.22.82s.35.46.62.65.57.37.93.55.76.35,1.19.52c.84.33,1.58.69,2.22,1.09s1.18.83,1.61,1.32.76,1.03.98,1.64.33,1.3.33,2.08-.13,1.47-.4,2.1-.65,1.17-1.16,1.62-1.12.8-1.83,1.05-1.51.37-2.39.37-1.66-.12-2.42-.36-1.43-.61-2.01-1.1-1.03-1.13-1.36-1.89-.5-1.67-.5-2.72h3.72c0,.56.06,1.03.17,1.43s.28.71.51.94.51.41.84.52.72.17,1.15.17c.49,0,.88-.09,1.17-.28s.5-.44.63-.75.19-.67.19-1.07Z"/>
    <path d="M564.77,264.28v2.96h-10.89v-2.53l5-6.36c.48-.66.86-1.24,1.13-1.75s.47-.96.58-1.36.18-.79.18-1.15c0-.54-.06-1.01-.19-1.4s-.32-.7-.56-.91-.56-.32-.92-.32c-.44,0-.8.14-1.09.41s-.5.64-.64,1.11-.21,1-.21,1.59h-3.57c0-1.1.23-2.11.68-3.04s1.09-1.66,1.92-2.21,1.82-.82,2.98-.82,2.08.21,2.85.63,1.35,1.03,1.74,1.81.59,1.72.59,2.81c0,.61-.08,1.2-.24,1.78s-.39,1.16-.69,1.73-.66,1.15-1.1,1.75-.92,1.21-1.45,1.84l-2.41,3.44h6.32Z"/>
  </g>
  <g>
    <rect class="cls-4" x="701.96" y="247.25" width="45.02" height="21.65"/>
    <path d="M706.21,248.26l3.49,14.54.57,3.95h-2.72l-5.32-18.48h3.97ZM709.21,262.8l3.5-14.54h4.01l-5.36,18.48h-2.7l.55-3.95Z"/>
    <path d="M726.3,261.89c0-.33-.03-.63-.09-.9-.06-.27-.18-.52-.38-.75s-.46-.46-.83-.69c-.36-.23-.83-.47-1.4-.71-.69-.29-1.35-.59-1.99-.92-.64-.33-1.22-.7-1.74-1.14-.52-.43-.92-.94-1.23-1.53-.3-.59-.45-1.28-.45-2.08s.14-1.49.42-2.12c.28-.63.69-1.18,1.21-1.63.52-.45,1.14-.8,1.85-1.05.71-.25,1.5-.37,2.37-.37,1.18,0,2.21.25,3.08.74.87.49,1.54,1.16,2.02,2.02.48.85.72,1.84.72,2.95h-3.71c0-.52-.07-.99-.22-1.39-.15-.4-.38-.72-.7-.95-.32-.23-.74-.34-1.24-.34-.47,0-.87.1-1.17.29-.31.19-.54.45-.69.77-.15.33-.22.69-.22,1.1,0,.3.07.58.22.82.15.24.35.46.62.65.26.19.57.37.93.55.36.18.76.35,1.19.52.84.33,1.58.69,2.22,1.09.64.39,1.18.83,1.61,1.32s.76,1.03.98,1.64c.22.61.33,1.3.33,2.08s-.13,1.47-.4,2.1-.65,1.17-1.16,1.62-1.12.8-1.83,1.05c-.71.25-1.51.37-2.39.37s-1.66-.12-2.42-.36-1.43-.61-2.01-1.1c-.58-.5-1.03-1.13-1.36-1.89s-.5-1.67-.5-2.72h3.72c0,.56.05,1.03.17,1.43.11.39.28.71.51.94s.51.41.84.52c.33.11.72.17,1.15.17.49,0,.88-.09,1.17-.28s.5-.44.63-.75.19-.67.19-1.07Z"/>
    <path d="M740.11,248.22v18.52h-3.57v-14.16l-3.53,1.36v-2.97l6.7-2.75h.39Z"/>
  </g>
  <g>
    <rect class="cls-4" x="890.09" y="247.96" width="47.38" height="20.21"/>
    <path d="M894.34,248.98l3.49,14.54.57,3.95h-2.72l-5.32-18.48h3.97ZM897.34,263.52l3.5-14.54h4.01l-5.36,18.48h-2.7l.55-3.95Z"/>
    <path d="M914.42,262.6c0-.33-.03-.63-.09-.9-.06-.27-.18-.52-.38-.75s-.46-.46-.83-.69c-.36-.23-.83-.47-1.4-.71-.69-.29-1.35-.59-1.99-.92-.64-.33-1.22-.7-1.74-1.14-.52-.43-.92-.94-1.23-1.53-.3-.59-.45-1.28-.45-2.08s.14-1.49.42-2.12c.28-.63.69-1.18,1.21-1.63.52-.45,1.14-.8,1.85-1.05.71-.25,1.5-.37,2.37-.37,1.18,0,2.21.25,3.08.74.87.49,1.54,1.16,2.02,2.02.48.85.72,1.84.72,2.95h-3.71c0-.52-.07-.99-.22-1.39-.15-.4-.38-.72-.7-.95-.32-.23-.74-.34-1.24-.34-.47,0-.87.1-1.17.29-.31.19-.54.45-.69.77-.15.33-.22.69-.22,1.1,0,.3.07.58.22.82.15.24.35.46.62.65.26.19.57.37.93.55.36.18.76.35,1.19.52.84.33,1.58.69,2.22,1.09.64.39,1.18.83,1.61,1.32s.76,1.03.98,1.64c.22.61.33,1.3.33,2.08s-.13,1.47-.4,2.1-.65,1.17-1.16,1.62-1.12.8-1.83,1.05c-.71.25-1.51.37-2.39.37s-1.66-.12-2.42-.36-1.43-.61-2.01-1.1c-.58-.5-1.03-1.13-1.36-1.89s-.5-1.67-.5-2.72h3.72c0,.56.05,1.03.17,1.43.11.39.28.71.51.94s.51.41.84.52c.33.11.72.17,1.15.17.49,0,.88-.09,1.17-.28s.5-.44.63-.75.19-.67.19-1.07Z"/>
    <path d="M931.23,264.51v2.96h-10.89v-2.53l5-6.36c.48-.66.86-1.24,1.13-1.75.27-.51.46-.96.58-1.36.12-.4.18-.79.18-1.15,0-.54-.06-1.01-.19-1.4s-.32-.7-.57-.91c-.25-.22-.56-.32-.92-.32-.44,0-.8.14-1.09.41-.29.27-.5.64-.64,1.11s-.21,1-.21,1.59h-3.57c0-1.1.23-2.11.68-3.04.45-.93,1.09-1.66,1.92-2.21s1.82-.82,2.98-.82,2.08.21,2.85.63c.77.42,1.35,1.03,1.74,1.81s.59,1.72.59,2.81c0,.61-.08,1.2-.24,1.78-.16.58-.39,1.16-.69,1.73-.3.57-.66,1.15-1.1,1.75-.44.59-.92,1.21-1.45,1.84l-2.41,3.44h6.32Z"/>
  </g>
  <g>
    <rect class="cls-4" x="1090.14" y="247.23" width="37" height="21.68"/>
    <path d="M1099.46,261.87c0-.33-.03-.63-.09-.9-.06-.27-.18-.52-.37-.75s-.47-.46-.83-.69c-.36-.23-.83-.47-1.4-.71-.69-.29-1.35-.59-1.99-.92-.64-.33-1.22-.7-1.74-1.14-.52-.43-.92-.94-1.22-1.53-.3-.59-.45-1.28-.45-2.08s.14-1.49.43-2.12c.28-.63.69-1.18,1.21-1.63.53-.45,1.14-.8,1.85-1.05.71-.25,1.5-.37,2.37-.37,1.19,0,2.21.25,3.08.74.87.49,1.54,1.16,2.02,2.02.48.85.72,1.84.72,2.95h-3.71c0-.52-.07-.99-.22-1.39-.15-.4-.38-.72-.71-.95-.32-.23-.74-.34-1.24-.34-.47,0-.87.1-1.17.29-.31.19-.54.45-.69.77-.15.33-.22.69-.22,1.1,0,.3.07.58.22.82.15.24.35.46.62.65.26.19.57.37.93.55.36.18.75.35,1.19.52.84.33,1.58.69,2.22,1.09.64.39,1.18.83,1.61,1.32s.76,1.03.98,1.64c.22.61.33,1.3.33,2.08s-.13,1.47-.4,2.1-.65,1.17-1.16,1.62-1.12.8-1.83,1.05c-.72.25-1.51.37-2.39.37s-1.66-.12-2.42-.36-1.43-.61-2.01-1.1c-.58-.5-1.04-1.13-1.37-1.89s-.5-1.67-.5-2.72h3.72c0,.56.06,1.03.17,1.43.11.39.28.71.51.94s.51.41.84.52c.33.11.72.17,1.15.17.49,0,.88-.09,1.17-.28s.5-.44.63-.75.19-.67.19-1.07Z"/>
    <path d="M1109.52,248.24v18.48h-3.69v-18.48h3.69Z"/>
    <path d="M1120.29,248.21v18.52h-3.57v-14.16l-3.53,1.36v-2.97l6.7-2.75h.39Z"/>
  </g>
</svg>